<svg xmlns="http://www.w3.org/2000/svg" viewBox="0 0 48 48" fill="none">
  <rect width="48" height="48" rx="8" fill="#632CA6"/>
  <path d="M32.5 18.5c-1.2-1.8-3.5-2.5-5.5-2l-2-3c-.8-1.2-2.2-1.8-3.5-1.5-1.3.3-2.3 1.3-2.5 2.6l-.5 3c-2 .5-3.5 2.2-3.5 4.4 0 1.5.7 2.8 1.8 3.7l-1.3 4c-.3 1 0 2 .7 2.7.7.7 1.7 1 2.7.7l4-1.3c.9 1.1 2.2 1.7 3.6 1.7 1.8 0 3.4-1 4.2-2.5l2.5.5c1.3.3 2.6-.2 3.3-1.3.7-1.1.7-2.5 0-3.6l-1.5-2.5c.8-1.2.8-2.8-.5-4.6z" fill="white"/>
  <circle cx="21" cy="22" r="1.5" fill="#632CA6"/>
  <circle cx="27" cy="20" r="1.5" fill="#632CA6"/>
  <path d="M22 27c1.5 1 3.5 1 5 0" stroke="#632CA6" stroke-width="1.5" stroke-linecap="round"/>
</svg>
