<svg xmlns="http://www.w3.org/2000/svg" viewBox="0 0 48 48">
  <rect width="48" height="48" rx="8" fill="#FF7A59"/>
  <path fill="#FFFFFF" d="M32 17.5V14c1-0.5 1.7-1.5 1.7-2.7 0-1.7-1.3-3-3-3s-3 1.3-3 3c0 1.2 0.7 2.2 1.7 2.7v3.5c-1.6 0.4-3 1.2-4 2.3l-8.6-6.4c0.1-0.3 0.1-0.6 0.1-0.9 0-1.9-1.5-3.4-3.4-3.4S10 10.6 10 12.5s1.5 3.4 3.4 3.4c0.6 0 1.2-0.2 1.7-0.5l8.4 6.3c-0.6 1.1-1 2.4-1 3.8 0 4.4 3.6 8 8 8s8-3.6 8-8c0-3.8-2.7-7-6.3-7.8zM30.5 30.5c-2.8 0-5-2.2-5-5s2.2-5 5-5 5 2.2 5 5-2.2 5-5 5z"/>
</svg>
