<svg xmlns="http://www.w3.org/2000/svg" viewBox="0 0 48 48">
  <path fill="#1565C0" d="M18.7,13.767l0.005,0.002C18.809,13.326,19.187,13,19.66,13h13.472c3.205,0,5.994,1.086,7.536,3.424c1.062-5.056-0.022-8.492-3.651-11.607C33.843,1.986,29.068,1,23.18,1H8.32c-0.93,0-1.721,0.676-1.87,1.595l-5.413,34.32c-0.113,0.717,0.441,1.367,1.168,1.367h8.615l-0.055,0.349C10.619,39.329,11.173,40,11.898,40h7.403c0.804,0,1.486-0.583,1.614-1.376l0.057-0.301l1.283-8.113l0.082-0.449c0.128-0.793,0.81-1.376,1.614-1.376h1.015c6.59,0,11.747-2.675,13.256-10.413C38.8,15.006,38.071,12.573,36.043,11c-0.608-0.472-1.311-0.862-2.089-1.178C32.66,9.394,31.15,9,29.447,9H21.076C20.603,9,20.189,9.282,20.041,9.707l-1.294,3.937C18.725,13.707,18.7,13.749,18.7,13.767z"/>
  <path fill="#039BE5" d="M40.151,15.042C38.55,23.058,33.098,26,25.782,26h-2.674c-0.922,0-1.62,0.57-1.755,1.457l-1.663,10.517L19.267,40.5C19.141,41.299,19.747,42,20.557,42h6.653c0.789,0,1.461-0.573,1.584-1.352l0.065-0.341l1.256-7.965l0.081-0.438c0.123-0.78,0.795-1.353,1.584-1.353h0.997c6.467,0,11.527-2.626,13.01-10.221c0.563-2.881,0.321-5.322-1.046-7.114C43.912,14.18,42.274,14.449,40.151,15.042z"/>
  <path fill="#283593" d="M19.66,13h13.472c0.628,0,1.225,0.046,1.786,0.133c0.576,0.09,1.119,0.22,1.629,0.389c0.535,0.177,1.035,0.394,1.499,0.652c0.606-3.859-0.004-6.482-2.093-8.863C33.179,2.144,28.263,1,22.18,1H8.32c-0.93,0-1.721,0.676-1.87,1.595l-5.413,34.32c-0.113,0.717,0.441,1.367,1.168,1.367h8.615l2.159-13.696l0.145-0.919L14.39,16.54l0.005-0.032c0.267-1.618,1.633-2.823,3.265-2.823H19.66z"/>
</svg>
