<svg xmlns="http://www.w3.org/2000/svg" viewBox="0 0 48 48" fill="none">
  <rect width="48" height="48" rx="8" fill="#362D59"/>
  <path d="M27.5 12c-1.2 0-2.3.6-3 1.5l-9 15.5c-.5.9-.5 2 0 2.9.5.9 1.4 1.5 2.5 1.6h3v-2h-2.5c-.3 0-.5-.2-.6-.4-.1-.2-.1-.5 0-.7l8.6-14.9c.2-.3.5-.5.9-.5s.7.2.9.5l3 5.2 1.7-1-3-5.2c-.7-.9-1.8-1.5-3-1.5z" fill="#F8B4D9"/>
  <path d="M33 27c.3 0 .5.2.6.4.1.2.1.5 0 .7l-2.1 3.6v.1h2.5c.3 0 .5.2.6.4.1.2.1.5 0 .7l-.5.9h-5l3.4-5.8c.2-.3.5-.5.9-.5h-.4z" fill="#F8B4D9"/>
  <path d="M22 36v-4h2v4h-2z" fill="#F8B4D9"/>
  <path d="M26 36v-2h2v2h-2z" fill="#F8B4D9"/>
</svg>
