<svg xmlns="http://www.w3.org/2000/svg" viewBox="0 0 109.5 124.5">
  <path fill="#95BF47" d="M95.9 23.9c-.1-.6-.6-1-1.1-1-.5 0-9.3-.2-9.3-.2s-7.4-7.2-8.1-7.9c-.7-.7-2.2-.5-2.7-.3 0 0-1.4.4-3.7 1.1-.4-1.3-1-2.8-1.8-4.4-2.6-5-6.5-7.7-11.1-7.7-.3 0-.6 0-1 .1-.1-.2-.3-.3-.4-.5-2-2.2-4.6-3.2-7.7-3.1-6 .2-12 4.5-16.8 12.2-3.4 5.4-6 12.2-6.7 17.5-6.9 2.1-11.7 3.6-11.8 3.7-3.5 1.1-3.6 1.2-4 4.5-.3 2.5-9.5 73.1-9.5 73.1l75.6 13.1V23.9h-.9zm-28.2-6.3c-1.8.5-3.8 1.2-5.9 1.8 0-3-.4-7.3-1.8-10.9 4.5.9 6.7 5.9 7.7 9.1zm-10 3.1c-4 1.2-8.4 2.6-12.8 4 1.2-4.7 3.6-9.4 6.4-12.5 1.1-1.1 2.6-2.4 4.3-3.2 1.7 3.5 2.1 8.4 2.1 11.7zm-8-15.3c1.4 0 2.6.3 3.6.9-1.6.8-3.2 2.1-4.7 3.6-3.8 4.1-6.7 10.5-7.9 16.6-3.7 1.1-7.3 2.3-10.7 3.3 2.1-10.2 10.3-23.8 19.7-24.4z"/>
  <path fill="#5E8E3E" d="M94.8 22.9c-.5 0-9.3-.2-9.3-.2s-7.4-7.2-8.1-7.9c-.3-.3-.6-.4-1-.4v109.6l37.1-8.1S96 24.3 95.9 23.9c-.1-.6-.6-1-1.1-1z"/>
  <path fill="#fff" d="m58 39.9-3.8 14.4s-4.3-2-9.4-1.6c-7.5.5-7.5 5.2-7.5 6.4.4 6.4 17.3 7.8 18.3 22.9.7 11.9-6.3 20-16.4 20.6-12.2.8-18.9-6.4-18.9-6.4l2.6-11s6.7 5.1 12.1 4.7c3.5-.2 4.8-3.1 4.7-5.1-.5-8.4-14.3-7.9-15.2-21.7-.7-11.6 6.9-23.4 23.7-24.4 6.5-.5 9.8 1.2 9.8 1.2z"/>
</svg>
