<svg xmlns="http://www.w3.org/2000/svg" viewBox="0 0 48 48">
  <path fill="#33D375" d="M10,24c0,2.209-1.791,4-4,4s-4-1.791-4-4s1.791-4,4-4h4V24z M12,24c0-2.209,1.791-4,4-4s4,1.791,4,4v10c0,2.209-1.791,4-4,4s-4-1.791-4-4V24z"/>
  <path fill="#40C4FF" d="M24,10c-2.209,0-4-1.791-4-4s1.791-4,4-4s4,1.791,4,4v4H24z M24,12c2.209,0,4,1.791,4,4s-1.791,4-4,4H14c-2.209,0-4-1.791-4-4s1.791-4,4-4H24z"/>
  <path fill="#E91E63" d="M38,24c0-2.209,1.791-4,4-4s4,1.791,4,4s-1.791,4-4,4h-4V24z M36,24c0,2.209-1.791,4-4,4s-4-1.791-4-4V14c0-2.209,1.791-4,4-4s4,1.791,4,4V24z"/>
  <path fill="#FFC107" d="M24,38c2.209,0,4,1.791,4,4s-1.791,4-4,4s-4-1.791-4-4v-4H24z M24,36c-2.209,0-4-1.791-4-4s1.791-4,4-4h10c2.209,0,4,1.791,4,4s-1.791,4-4,4H24z"/>
</svg>
