<svg xmlns="http://www.w3.org/2000/svg" viewBox="0 0 512 210">
  <path fill="#7F54B3" d="M45.3 0h421.4C492.5 0 512 19.5 512 43.5v122.9c0 24-19.5 43.5-43.5 43.5H302.6l18.6 28.5-66.9-28.5H45.3C21.3 210 1.8 190.5 1.8 166.4V43.5C1.8 19.5 21.3 0 45.3 0z"/>
  <path fill="#fff" d="M46.8 25.7c4.3-5.6 10.8-8.5 19.2-8.8 15.1-.5 23.7 7.2 25.8 23.1 8.2 59.2 17.1 109.4 26.7 150.6L166 94.9c8.1-16.5 18.4-25.1 30.9-25.7 18.1-1 29.3 11.6 33.6 37.8 3.9 24.3 9.6 45.3 17.1 63.2 4.7-46.9 12.7-82.7 24-107.5 5.3-11.6 13.2-17.6 23.7-18 7.8-.4 14.4 2.3 19.8 8 5.4 5.7 8.3 12.8 8.7 21.2.3 6.7-1.1 12.5-4.2 17.2-3.1 4.8-12.1 13.5-12.1 13.5s-8.7-16.2-22.6 7.8c-10.9 18.8-19.5 50.3-19.5 50.3-3.6 16-8 27.5-13.2 34.5-5.7 7.8-12.4 11.9-20 12.4-10.3.6-18.6-5.6-24.9-18.8-10.7-22.6-19.4-57.2-26-103.8L146.4 173c-10.5 21.3-23.4 32.5-38.6 33.6-22.1 1.5-38.1-18.3-48.2-59.4-8.3-33.3-14.1-73.7-17.3-121.1-.5-8.4 1.5-15.5 5.8-21.1l-1.3.7zm359.1 53c-7.3 8.1-11.1 18.4-11.5 30.8-.3 10.1 1.6 20.3 5.8 30.6 5.3 13 12.4 19.7 21.4 20.1 8.9.4 16.5-5.7 22.6-18.1 5.3-10.6 8.1-22.4 8.5-35.5.4-12.4-1.7-22.9-6.3-31.5-5.3-10.2-12.6-15.1-21.8-14.6-8.2.5-14.8 6.5-18.8 18.2h.1zm-103.2 0c-7.3 8.1-11.2 18.4-11.5 30.8-.4 10.1 1.6 20.3 5.8 30.6 5.3 13 12.4 19.7 21.4 20.1 8.9.4 16.5-5.7 22.6-18.1 5.3-10.6 8.1-22.4 8.5-35.5.4-12.4-1.7-22.9-6.3-31.5-5.3-10.2-12.6-15.1-21.8-14.6-8.2.5-14.8 6.5-18.7 18.2z"/>
</svg>
